<?xml version="1.0" standalone="no"?>
<!DOCTYPE svg PUBLIC "-//W3C//DTD SVG 20010904//EN"
 "http://www.w3.org/TR/2001/REC-SVG-20010904/DTD/svg10.dtd">
<svg version="1.0" xmlns="http://www.w3.org/2000/svg"
 width="150.000000pt" height="150.000000pt" viewBox="0 0 150.000000 150.000000"
 preserveAspectRatio="xMidYMid meet">
<metadata>
Created by potrace 1.11, written by Peter Selinger 2001-2013
</metadata>
<g transform="translate(0.000000,150.000000) scale(0.100000,-0.100000)"
fill="#000000" stroke="none">
<path d="M418 1324 l-328 -164 0 -408 0 -408 330 -165 330 -165 330 164 330
165 0 408 0 409 -330 165 c-181 91 -331 165 -332 164 -2 0 -150 -74 -330 -165z
m374 105 c35 -18 39 -23 25 -31 -27 -15 -8 -30 29 -24 28 6 58 -6 195 -75 133
-66 160 -83 145 -91 -16 -9 -16 -11 0 -22 16 -12 16 -13 -1 -20 -17 -6 -17 -7
0 -20 17 -12 17 -13 0 -20 -17 -6 -17 -7 1 -20 16 -12 2 -21 -146 -95 -90 -45
-170 -79 -177 -76 -7 3 -19 7 -25 10 -7 3 -20 1 -28 -5 -13 -8 -12 -11 3 -23
18 -12 16 -14 -22 -32 -40 -18 -42 -18 -82 0 -35 16 -39 21 -25 31 9 6 16 14
16 17 0 12 -33 16 -50 7 -16 -8 -52 6 -185 72 -142 71 -163 85 -149 95 16 12
16 13 -1 19 -17 7 -17 8 0 20 17 13 17 14 0 20 -17 7 -17 8 -1 20 16 11 16 13
0 22 -15 8 12 25 145 91 137 69 167 81 195 75 37 -6 56 9 29 24 -14 8 -11 13
23 30 48 26 37 26 86 1z m-518 -242 c18 -13 18 -14 1 -21 -17 -6 -17 -7 1 -20
18 -14 18 -15 -7 -21 -18 -4 -40 0 -65 13 l-38 19 40 21 c47 25 46 25 68 9z
m1018 -8 l42 -21 -38 -20 c-25 -13 -47 -17 -65 -13 -25 6 -25 7 -7 21 18 13
18 14 1 20 -17 7 -17 8 1 21 22 16 17 17 66 -8z m-1002 -154 c0 -14 8 -29 20
-35 12 -6 20 -21 20 -35 0 -14 8 -29 20 -35 17 -9 29 -50 15 -50 -25 0 -63 33
-68 59 -4 17 -14 32 -27 36 -14 4 -20 15 -20 36 0 16 -2 29 -4 29 -2 0 -11 3
-20 6 -25 10 -21 -43 4 -56 11 -6 20 -20 20 -30 0 -25 1 -25 -65 7 l-55 27 0
73 0 73 80 -40 c67 -34 80 -44 80 -65z m78 -33 c3 -16 -1 -20 -12 -16 -19 7
-22 48 -3 42 6 -3 13 -14 15 -26z m116 -38 c9 -3 16 -15 16 -26 0 -14 -5 -18
-16 -14 -9 3 -18 6 -20 6 -2 0 -4 9 -4 20 0 22 1 23 24 14z m-309 -51 c42 -20
51 -57 10 -47 -21 5 -25 3 -25 -15 0 -11 11 -28 25 -37 15 -10 25 -26 25 -40
l0 -24 -40 20 -40 20 0 70 c0 39 2 70 5 70 2 0 20 -8 40 -17z m455 -23 l80
-40 0 -70 c0 -39 -4 -70 -9 -70 -24 0 -71 37 -71 56 0 23 -18 44 -37 44 -7 0
-13 -9 -13 -19 0 -18 -3 -18 -60 7 -49 22 -60 31 -60 50 0 19 4 22 20 17 16
-5 20 -2 20 15 0 17 4 20 20 15 16 -5 20 -2 20 14 0 12 2 21 5 21 3 0 41 -18
85 -40z m-297 -51 l37 -19 0 -75 0 -75 -60 30 -60 30 0 71 c0 79 0 79 83 38z
m151 -75 c13 -5 16 -22 16 -81 0 -64 -2 -74 -16 -69 -9 3 -18 6 -20 6 -2 0 -4
34 -4 75 0 41 2 75 4 75 2 0 11 -3 20 -6z m-309 -51 c28 -13 35 -22 35 -45 0
-15 2 -28 4 -28 2 0 11 -3 20 -6 12 -4 16 0 16 16 0 15 5 20 18 18 14 -3 17
-16 20 -81 2 -42 1 -77 -2 -77 -21 0 -36 16 -36 39 0 21 -8 31 -35 44 -45 21
-45 21 -45 -4 0 -15 -4 -19 -16 -15 -9 3 -18 6 -20 6 -2 0 -4 34 -4 75 0 41 2
75 5 75 2 0 20 -8 40 -17z m195 -169 c0 -58 -3 -72 -14 -68 -16 6 -27 72 -19
119 4 23 10 32 19 28 10 -4 14 -25 14 -79z m240 56 l60 -30 0 -180 c0 -176 -1
-180 -19 -170 -28 14 -31 13 -31 -13 0 -17 11 -28 45 -45 31 -15 45 -28 45
-42 0 -11 -3 -20 -7 -21 -5 0 -61 26 -125 58 l-117 58 -1 73 c0 39 2 72 5 72
2 0 29 -12 60 -27 41 -21 55 -32 55 -49 0 -20 26 -52 34 -43 2 2 7 24 11 49
l6 45 -85 44 -86 44 0 74 0 73 40 -20 c39 -20 40 -22 40 -70 0 -39 4 -52 20
-60 19 -10 20 -8 20 39 0 40 -4 52 -20 61 -16 8 -20 21 -20 60 0 28 2 50 5 50
3 0 32 -14 65 -30z m343 -50 c3 -11 4 -20 2 -20 -2 0 -10 -3 -19 -6 -11 -4
-16 0 -16 13 0 36 24 45 33 13z m30 -57 c-16 -13 -18 -12 -21 8 -3 14 4 28 15
36 16 13 18 12 21 -8 3 -14 -4 -28 -15 -36z m-808 20 c25 -12 35 -23 35 -40 0
-20 -4 -22 -25 -17 -21 5 -25 3 -25 -15 0 -11 11 -28 25 -37 14 -9 25 -25 25
-35 0 -23 -1 -23 -45 -5 l-35 15 0 75 c0 42 2 76 5 76 2 0 20 -8 40 -17z m735
-37 c0 -13 -7 -26 -15 -30 -11 -4 -15 1 -15 18 0 12 3 26 7 29 13 14 23 6 23
-17z m-540 -139 l0 -78 -60 33 -60 33 0 71 0 72 60 -26 60 -27 0 -78z"/>
<path d="M722 1393 c-10 -4 -9 -8 5 -18 15 -11 -7 -25 -186 -114 -112 -56
-202 -104 -200 -105 2 -2 92 -48 199 -101 107 -54 197 -100 200 -102 2 -2 -2
-8 -10 -14 -13 -8 -13 -10 0 -19 8 -5 17 -10 20 -10 3 0 12 5 20 10 13 9 13
11 0 19 -8 6 -12 12 -10 14 3 3 95 50 205 105 l200 100 -205 102 c-178 89
-202 104 -187 115 16 11 16 13 1 19 -18 7 -33 7 -52 -1z m78 -93 l35 -19 -37
-15 c-21 -9 -42 -16 -48 -16 -6 0 -27 7 -48 16 l-37 15 35 19 c19 11 42 19 50
19 8 0 31 -8 50 -19z m-135 -57 c19 -9 35 -20 35 -23 0 -4 -17 -14 -37 -22
-33 -12 -43 -12 -75 0 -21 8 -38 18 -38 22 0 6 58 38 72 39 4 1 23 -7 43 -16z
m250 0 c19 -9 35 -20 35 -23 0 -3 -17 -14 -37 -24 -35 -16 -39 -17 -75 0 -21
9 -38 20 -38 24 0 6 58 38 72 39 4 1 23 -7 43 -16z m-372 -64 l42 -22 -42 -20
c-41 -20 -43 -20 -83 -2 l-40 18 37 23 c21 13 39 24 41 24 1 0 22 -10 45 -21z
m250 0 l42 -22 -43 -20 -42 -21 -42 21 -43 20 40 21 c49 26 38 26 88 1z m250
0 l42 -22 -43 -20 -42 -21 -42 21 -43 20 40 21 c49 26 38 26 88 1z m-343 -84
c0 -2 -17 -13 -37 -24 -37 -19 -38 -19 -75 0 -21 11 -38 21 -38 24 0 2 17 13
37 24 37 19 38 19 75 0 21 -11 38 -21 38 -24z m215 21 c19 -8 35 -17 35 -20 0
-3 -17 -14 -38 -25 -37 -19 -38 -19 -75 0 -20 11 -37 22 -37 25 0 5 59 33 73
34 4 0 23 -7 42 -14z m-116 -65 l35 -19 -42 -21 -42 -21 -40 22 -39 23 32 17
c40 22 54 22 96 -1z"/>
</g>
</svg>
